#Comment line ignore any data following # character 
#Hierarchical Translation and Rotation (.htr) file 
[Header]	
#Header keywords are followed by a single value 
FileType HTR		#Single word string
DataType HTRS		#Translation followed by rotation and scale data
FileVersion 1		#integer
NumSegments 64		#integer
NumFrames 3		#integer
DataFrameRate 30		#integer, data frame rate in this file
EulerRotationOrder ZYX
CalibrationUnits mm
RotationUnits Degrees
GlobalAxisofGravity Y
BoneLengthAxis Y
ScaleFactor 1.00
[SegmentNames&Hierarchy]
#CHILD	PARENT
Pinger_Root GLOBAL
Pelvis Pinger_Root
L_Hip Pelvis
R_Hip Pelvis
Rear_Leg01 Pelvis
Spine1 Pelvis
L_Leg01 L_Hip
L_Leg02 L_Leg01
L_Leg03 L_Leg02
L_Foot L_Leg03
L_Toe1_01 L_Foot
L_Toe2_01 L_Foot
L_Toe3_01 L_Foot
planeAlignerLeft L_Foot
L_Toe1_02 L_Toe1_01
L_Toe1_03 L_Toe1_02
L_Toe2_02 L_Toe2_01
L_Toe2_03 L_Toe2_02
L_Toe3_02 L_Toe3_01
L_Toe3_03 L_Toe3_02
planeLockWeightLeft planeAlignerLeft
R_Leg01 R_Hip
R_Leg02 R_Leg01
R_Leg03 R_Leg02
R_Foot R_Leg03
planeAlignerRight R_Foot
R_Toe1_01 R_Foot
R_Toe2_01 R_Foot
R_Toe3_01 R_Foot
planeLockWeightRight planeAlignerRight
R_Toe1_02 R_Toe1_01
R_Toe1_03 R_Toe1_02
R_Toe2_02 R_Toe2_01
R_Toe2_03 R_Toe2_02
R_Toe3_02 R_Toe3_01
R_Toe3_03 R_Toe3_02
Rear_Leg02 Rear_Leg01
Rear_Leg03 Rear_Leg02
Rear_Leg04 Rear_Leg03
Rear_Foot Rear_Leg04
planeAlignerCenter Rear_Foot
Rear_Toe1_01 Rear_Foot
Rear_Toe2_01 Rear_Foot
Rear_Toe3_01 Rear_Foot
planeLockWeightCenter planeAlignerCenter
Rear_Toe1_02 Rear_Toe1_01
Rear_Toe1_03 Rear_Toe1_02
Rear_Toe2_02 Rear_Toe2_01
Rear_Toe2_03 Rear_Toe2_02
Rear_Toe3_02 Rear_Toe3_01
Rear_Toe3_03 Rear_Toe3_02
Back_Bone Spine1
Head Spine1
Motor_Bone Back_Bone
Ping_Mechanism Back_Bone
BN_LookIK Head
bottomMouth Head
L_Mouth01 Head
L_mouthFront Head
mouthGun Head
R_Mouth01 Head
R_mouthFront Head
TopMouth Head
weapon_bone Head
[BasePosition]
#SegmentName Tx, Ty, Tz, Rx, Ry, Rz, BoneLength
Pinger_Root 0.000000 0.000000 0.000000 -90.000000 0.000000 0.000000 10.000000 
Pelvis 0.000000 0.000000 0.000000 0.000000 0.000000 0.000000 10.000000 
L_Hip 0.000000 0.000000 0.000000 0.000000 0.000000 0.000000 10.000000 
R_Hip 0.000000 0.000000 0.000000 0.000000 0.000000 0.000000 10.000000 
Rear_Leg01 0.000000 0.000000 0.000000 0.000000 0.000000 0.000000 10.000000 
Spine1 0.000000 0.000000 0.000000 0.000000 0.000000 0.000000 10.000000 
L_Leg01 0.000000 0.000000 0.000000 0.000000 0.000000 0.000000 10.000000 
L_Leg02 0.000000 0.000000 0.000000 0.000000 0.000000 0.000000 10.000000 
L_Leg03 0.000000 0.000000 0.000000 0.000000 0.000000 0.000000 10.000000 
L_Foot 0.000000 0.000000 0.000000 0.000000 0.000000 0.000000 10.000000 
L_Toe1_01 0.000000 0.000000 0.000000 0.000000 0.000000 0.000000 10.000000 
L_Toe2_01 0.000000 0.000000 0.000000 0.000000 0.000000 0.000000 10.000000 
L_Toe3_01 0.000000 0.000000 0.000000 0.000000 0.000000 0.000000 10.000000 
planeAlignerLeft 0.000000 0.000000 0.000000 0.000000 0.000000 0.000000 10.000000 
L_Toe1_02 0.000000 0.000000 0.000000 0.000000 0.000000 0.000000 10.000000 
L_Toe1_03 0.000000 0.000000 0.000000 0.000000 0.000000 0.000000 10.000000 
L_Toe2_02 0.000000 0.000000 0.000000 0.000000 0.000000 0.000000 10.000000 
L_Toe2_03 0.000000 0.000000 0.000000 0.000000 0.000000 0.000000 10.000000 
L_Toe3_02 0.000000 0.000000 0.000000 0.000000 0.000000 0.000000 10.000000 
L_Toe3_03 0.000000 0.000000 0.000000 0.000000 0.000000 0.000000 10.000000 
planeLockWeightLeft 0.000000 0.000000 0.000000 0.000000 0.000000 0.000000 10.000000 
R_Leg01 0.000000 0.000000 0.000000 0.000000 0.000000 0.000000 10.000000 
R_Leg02 0.000000 0.000000 0.000000 0.000000 0.000000 0.000000 10.000000 
R_Leg03 0.000000 0.000000 0.000000 0.000000 0.000000 0.000000 10.000000 
R_Foot 0.000000 0.000000 0.000000 0.000000 0.000000 0.000000 10.000000 
planeAlignerRight 0.000000 0.000000 0.000000 0.000000 0.000000 0.000000 10.000000 
R_Toe1_01 0.000000 0.000000 0.000000 0.000000 0.000000 0.000000 10.000000 
R_Toe2_01 0.000000 0.000000 0.000000 0.000000 0.000000 0.000000 10.000000 
R_Toe3_01 0.000000 0.000000 0.000000 0.000000 0.000000 0.000000 10.000000 
planeLockWeightRight 0.000000 0.000000 0.000000 0.000000 0.000000 0.000000 10.000000 
R_Toe1_02 0.000000 0.000000 0.000000 0.000000 0.000000 0.000000 10.000000 
R_Toe1_03 0.000000 0.000000 0.000000 0.000000 0.000000 0.000000 10.000000 
R_Toe2_02 0.000000 0.000000 0.000000 0.000000 0.000000 0.000000 10.000000 
R_Toe2_03 0.000000 0.000000 0.000000 0.000000 0.000000 0.000000 10.000000 
R_Toe3_02 0.000000 0.000000 0.000000 0.000000 0.000000 0.000000 10.000000 
R_Toe3_03 0.000000 0.000000 0.000000 0.000000 0.000000 0.000000 10.000000 
Rear_Leg02 0.000000 0.000000 0.000000 0.000000 0.000000 0.000000 10.000000 
Rear_Leg03 0.000000 0.000000 0.000000 0.000000 0.000000 0.000000 10.000000 
Rear_Leg04 0.000000 0.000000 0.000000 0.000000 0.000000 0.000000 10.000000 
Rear_Foot 0.000000 0.000000 0.000000 0.000000 0.000000 0.000000 10.000000 
planeAlignerCenter 0.000000 0.000000 0.000000 0.000000 0.000000 0.000000 10.000000 
Rear_Toe1_01 0.000000 0.000000 0.000000 0.000000 0.000000 0.000000 10.000000 
Rear_Toe2_01 0.000000 0.000000 0.000000 0.000000 0.000000 0.000000 10.000000 
Rear_Toe3_01 0.000000 0.000000 0.000000 0.000000 0.000000 0.000000 10.000000 
planeLockWeightCenter 0.000000 0.000000 0.000000 0.000000 0.000000 0.000000 10.000000 
Rear_Toe1_02 0.000000 0.000000 0.000000 0.000000 0.000000 0.000000 10.000000 
Rear_Toe1_03 0.000000 0.000000 0.000000 0.000000 0.000000 0.000000 10.000000 
Rear_Toe2_02 0.000000 0.000000 0.000000 0.000000 0.000000 0.000000 10.000000 
Rear_Toe2_03 0.000000 0.000000 0.000000 0.000000 0.000000 0.000000 10.000000 
Rear_Toe3_02 0.000000 0.000000 0.000000 0.000000 0.000000 0.000000 10.000000 
Rear_Toe3_03 0.000000 0.000000 0.000000 0.000000 0.000000 0.000000 10.000000 
Back_Bone 0.000000 0.000000 0.000000 0.000000 0.000000 0.000000 10.000000 
Head 0.000000 0.000000 0.000000 0.000000 0.000000 0.000000 10.000000 
Motor_Bone 0.000000 0.000000 0.000000 0.000000 0.000000 0.000000 10.000000 
Ping_Mechanism 0.000000 0.000000 0.000000 0.000000 0.000000 0.000000 10.000000 
BN_LookIK 0.000000 0.000000 0.000000 0.000000 0.000000 0.000000 10.000000 
bottomMouth 0.000000 0.000000 0.000000 0.000000 0.000000 0.000000 10.000000 
L_Mouth01 0.000000 0.000000 0.000000 0.000000 0.000000 0.000000 10.000000 
L_mouthFront 0.000000 0.000000 0.000000 0.000000 0.000000 0.000000 10.000000 
mouthGun 0.000000 0.000000 0.000000 0.000000 0.000000 0.000000 10.000000 
R_Mouth01 0.000000 0.000000 0.000000 0.000000 0.000000 0.000000 10.000000 
R_mouthFront 0.000000 0.000000 0.000000 0.000000 0.000000 0.000000 10.000000 
TopMouth 0.000000 0.000000 0.000000 0.000000 0.000000 0.000000 10.000000 
weapon_bone 0.000000 0.000000 0.000000 0.000000 0.000000 0.000000 10.000000 
#Beginning of Data. Separated by tabs
#Fr	Tx	Ty	Tz	Rx	Ry	Rz	SF
[Pinger_Root]
136 0.000000 0.000000 0.000000 -0.000075 -0.000000 -0.000020 0.000000
137 0.000000 0.000000 0.000000 -0.000075 -0.000000 -0.000020 0.000000
138 0.000000 0.000000 0.000000 -0.000075 -0.000000 -0.000020 0.000000
[Pelvis]
136 80.864922 916.536438 4387.143066 -97.565727 -84.464417 89.939568 4482.588867
137 80.189865 916.536438 4387.916016 -97.620552 -84.503136 89.994934 4483.333008
138 79.514793 916.536438 4388.689453 -97.676102 -84.541817 90.051056 4484.078125
[L_Hip]
136 5.766392 125.831482 872.656799 160.158691 -45.484905 122.312202 881.701050
137 5.766392 125.831482 872.656799 160.158691 -45.484913 122.312202 881.701050
138 5.766392 125.831482 872.656799 160.158691 -45.484913 122.312202 881.701050
[R_Hip]
136 5.765438 125.836372 -872.654907 38.087841 49.812687 125.703735 881.699829
137 5.765438 125.836372 -872.654907 38.087841 49.812691 125.703735 881.699829
138 5.765438 125.836372 -872.654907 38.087841 49.812687 125.703735 881.699829
[Rear_Leg01]
136 -192.298416 -925.602966 -0.001907 169.659073 1.871584 -161.065735 945.367432
137 -192.298416 -925.602966 -0.001907 169.660721 1.878184 -161.018967 945.367432
138 -192.298416 -925.602966 -0.001907 169.662384 1.884782 -160.972183 945.367432
[Spine1]
136 290.604584 5.007505 0.000477 7.263360 -0.619451 17.747616 290.647736
137 290.604584 5.007505 0.000477 7.263560 -0.619420 17.789984 290.647736
138 290.604584 5.007505 0.000477 7.263757 -0.619389 17.832352 290.647736
[L_Leg01]
136 761.932007 -0.002384 -0.069261 21.344172 -16.632456 -5.278385 761.932068
137 761.932007 -0.002384 -0.069261 21.364243 -16.623959 -5.339839 761.932068
138 761.932007 -0.002384 -0.069261 21.384306 -16.615437 -5.401289 761.932068
[L_Leg02]
136 1441.140503 -0.000954 -0.000715 2.952207 -0.190642 -132.224030 1441.140503
137 1441.140503 -0.000954 -0.000715 2.947212 -0.190628 -132.181870 1441.140503
138 1441.140503 -0.000954 -0.000715 2.942218 -0.190610 -132.139694 1441.140503
[L_Leg03]
136 1686.963989 -0.000715 -0.000954 -0.029895 0.014820 118.523972 1686.963989
137 1686.963989 -0.000715 -0.000954 -0.029897 0.014816 118.511543 1686.963989
138 1686.963989 -0.000715 -0.000954 -0.029898 0.014813 118.499123 1686.963989
[L_Foot]
136 3041.570068 -30.715107 11.297464 1.743702 12.931427 55.868382 3041.746094
137 3041.570068 -30.715107 11.297464 1.750601 12.936472 55.855274 3041.746094
138 3041.570068 -30.715107 11.297464 1.757499 12.941516 55.842148 3041.746094
[L_Toe1_01]
136 -188.216690 -224.732346 -21.137953 93.719193 -6.906847 -171.991028 293.899567
137 -188.216690 -224.732346 -21.137953 93.719177 -6.902817 -171.989151 293.899567
138 -188.216690 -224.732346 -21.137953 93.719170 -6.898785 -171.987274 293.899567
[L_Toe2_01]
136 200.746536 -219.926590 148.838394 -90.029099 -26.340691 -52.656681 332.896027
137 200.746536 -219.926590 148.838394 -90.028931 -26.339758 -52.657364 332.896027
138 200.746536 -219.926590 148.838394 -90.028763 -26.338823 -52.658035 332.896027
[L_Toe3_01]
136 188.832520 -219.859131 -191.078659 -99.788055 13.839005 -67.673027 347.140900
137 188.832520 -219.859131 -191.078659 -99.788055 13.839008 -67.673027 347.140900
138 188.832520 -219.859131 -191.078659 -99.788055 13.839008 -67.673027 347.140900
[planeAlignerLeft]
136 0.812531 -811.448792 -0.314951 0.000000 -90.000000 -90.001900 811.449280
137 0.812531 -811.448792 -0.314951 0.000000 -90.000000 -90.001900 811.449280
138 0.812531 -811.448792 -0.314951 0.000000 -90.000000 -90.001900 811.449280
[L_Toe1_02]
136 413.761139 0.000477 0.000000 0.000203 -25.410625 -0.000182 413.761139
137 413.761139 0.000477 0.000000 0.000203 -25.410625 -0.000182 413.761139
138 413.761139 0.000477 0.000000 0.000203 -25.410625 -0.000182 413.761139
[L_Toe1_03]
136 464.317322 0.000358 -0.000089 0.003733 53.354919 0.003733 464.317322
137 464.317322 0.000358 -0.000089 0.003733 53.355049 0.003733 464.317322
138 464.317322 0.000358 -0.000089 0.003733 53.355167 0.003733 464.317322
[L_Toe2_02]
136 342.235809 -0.000477 0.000238 0.001188 -72.402016 0.001188 342.235809
137 342.235809 -0.000477 0.000238 0.001188 -72.402016 0.001188 342.235809
138 342.235809 -0.000477 0.000238 0.001188 -72.402016 0.001188 342.235809
[L_Toe2_03]
136 420.210846 -0.000715 0.000000 0.029305 85.409401 0.029305 420.210846
137 420.210846 -0.000715 0.000000 0.029298 85.408333 0.029298 420.210846
138 420.210846 -0.000715 0.000000 0.029291 85.407227 0.029291 420.210846
[L_Toe3_02]
136 329.270111 0.000954 0.000000 0.001178 -80.480331 0.001178 329.270111
137 329.270111 0.000954 0.000000 0.001178 -80.480331 0.001178 329.270111
138 329.270111 0.000954 0.000000 0.001178 -80.480354 0.001178 329.270111
[L_Toe3_03]
136 439.137451 -0.001907 0.000954 -179.995956 78.605721 -179.992447 439.137451
137 439.137451 -0.001907 0.000954 -179.995956 78.605698 -179.992447 439.137451
138 439.137451 -0.001907 0.000954 -179.995956 78.605698 -179.992447 439.137451
[planeLockWeightLeft]
136 -0.000954 0.000238 -0.000305 -0.011826 -0.004376 0.005620 0.001029
137 -0.000954 0.000238 -0.000305 -0.011826 -0.004376 0.005620 0.001029
138 -0.000954 0.000238 -0.000305 -0.011826 -0.004376 0.005620 0.001029
[R_Leg01]
136 761.455627 -0.001907 -0.000358 120.986748 -11.203299 33.317795 761.455688
137 761.455627 -0.001907 -0.000358 120.968513 -11.143122 33.355366 761.455688
138 761.455627 -0.001907 -0.000358 120.950333 -11.082938 33.392918 761.455688
[R_Leg02]
136 1441.140625 0.000000 -0.000238 -1.506152 -0.274569 -123.548920 1441.140625
137 1441.140625 0.000000 -0.000238 -1.502828 -0.272992 -123.454590 1441.140625
138 1441.140625 0.000000 -0.000238 -1.499502 -0.271421 -123.360283 1441.140625
[R_Leg03]
136 1686.963989 0.000954 0.001431 0.081664 -0.046516 132.574493 1686.963989
137 1686.963989 0.000954 0.001431 0.081514 -0.046110 132.533951 1686.963989
138 1686.963989 0.000954 0.001431 0.081364 -0.045704 132.493408 1686.963989
[R_Foot]
136 3041.560059 -30.531288 -11.204481 -0.444571 -24.606340 56.436165 3041.734131
137 3041.560059 -30.531288 -11.204481 -0.444057 -24.608879 56.393555 3041.734131
138 3041.560059 -30.531288 -11.204481 -0.443544 -24.611427 56.350948 3041.734131
[planeAlignerRight]
136 -0.635147 -812.270569 -0.364304 0.000000 -89.960434 -90.005180 812.270874
137 -0.635147 -812.270569 -0.364304 0.000000 -89.960434 -90.005180 812.270874
138 -0.635147 -812.270569 -0.364304 0.000000 -89.960434 -90.005180 812.270874
[R_Toe1_01]
136 -188.383347 -224.864899 21.052242 76.763535 -0.414595 -172.728699 294.101532
137 -188.383347 -224.864899 21.052242 76.763535 -0.414595 -172.728699 294.101532
138 -188.383347 -224.864899 21.052242 76.763535 -0.414595 -172.728699 294.101532
[R_Toe2_01]
136 200.637817 -220.002121 -148.787384 -91.743256 32.873829 -59.182163 332.857574
137 200.637817 -220.002121 -148.787384 -91.743256 32.873833 -59.182163 332.857574
138 200.637817 -220.002121 -148.787384 -91.743256 32.873833 -59.182163 332.857574
[R_Toe3_01]
136 188.606735 -220.092957 191.126343 -73.225998 -8.456855 -73.756157 347.192566
137 188.606735 -220.092957 191.126343 -73.225998 -8.456855 -73.756157 347.192566
138 188.606735 -220.092957 191.126343 -73.226006 -8.456862 -73.756165 347.192566
[planeLockWeightRight]
136 -0.000477 0.000000 0.000000 -0.011823 -0.004379 -0.000027 0.000477
137 -0.000477 0.000000 0.000000 -0.011823 -0.004379 -0.000027 0.000477
138 -0.000477 0.000000 0.000000 -0.011823 -0.004379 -0.000027 0.000477
[R_Toe1_02]
136 413.762085 0.000477 -0.000119 0.000006 -25.434675 -0.000005 413.762085
137 413.762085 0.000477 -0.000119 0.000006 -25.434675 -0.000005 413.762085
138 413.762085 0.000477 -0.000119 0.000006 -25.434675 -0.000005 413.762085
[R_Toe1_03]
136 464.317810 0.000000 0.001088 0.006627 69.597694 0.006627 464.317810
137 464.317810 0.000000 0.001088 0.006627 69.597557 0.006627 464.317810
138 464.317810 0.000000 0.001088 0.006627 69.597420 0.006627 464.317810
[R_Toe2_02]
136 342.234741 -0.000954 0.000238 0.001197 -67.215981 0.001197 342.234741
137 342.234741 -0.000954 0.000238 0.001197 -67.216156 0.001197 342.234741
138 342.234741 -0.000954 0.000238 0.001197 -67.216331 0.001197 342.234741
[R_Toe2_03]
136 420.210846 0.000715 -0.000268 0.008228 73.598709 0.008228 420.210846
137 420.210846 0.000715 -0.000268 0.008228 73.599144 0.008228 420.210846
138 420.210846 0.000715 -0.000268 0.008228 73.599579 0.008228 420.210846
[R_Toe3_02]
136 329.270355 -0.000477 -0.000954 0.001184 -74.501122 0.001184 329.270355
137 329.270355 -0.000477 -0.000954 0.001184 -74.501686 0.001184 329.270355
138 329.270355 -0.000477 -0.000954 0.001184 -74.502228 0.001184 329.270355
[R_Toe3_03]
136 439.137939 0.000238 0.001431 -0.011573 83.290718 -0.008071 439.137939
137 439.137939 0.000238 0.001431 -0.011574 83.290977 -0.008071 439.137939
138 439.137939 0.000238 0.001431 -0.011574 83.291359 -0.008071 439.137939
[Rear_Leg02]
136 1162.777710 -0.029802 0.005960 0.676186 -2.905621 -124.566536 1162.777710
137 1162.777710 -0.029802 0.005960 0.674481 -2.906085 -124.532219 1162.777710
138 1162.777710 -0.029802 0.005960 0.672776 -2.906547 -124.497917 1162.777710
[Rear_Leg03]
136 607.192505 -0.013351 -0.073195 0.010511 -0.004704 64.790726 607.192505
137 607.192505 -0.013351 -0.073195 0.010381 -0.004620 64.780121 607.192505
138 607.192505 -0.013351 -0.073195 0.010251 -0.004536 64.769508 607.192505
[Rear_Leg04]
136 995.874512 -0.020504 -0.011921 -0.040642 -0.014822 59.199108 995.874573
137 995.874512 -0.020504 -0.011921 -0.040640 -0.014830 59.177151 995.874573
138 995.874512 -0.020504 -0.011921 -0.040637 -0.014838 59.155190 995.874573
[Rear_Foot]
136 3096.176270 -0.067472 -0.041425 -144.863693 85.647926 47.927036 3096.176270
137 3096.176270 -0.067472 -0.041425 -144.830414 85.651199 47.959148 3096.176270
138 3096.176270 -0.067472 -0.041425 -144.797073 85.654671 47.991425 3096.176270
[planeAlignerCenter]
136 0.350077 0.966311 -838.790894 0.000009 0.000003 -179.999985 838.791565
137 0.350077 0.966311 -838.790894 0.000009 0.000003 -179.999985 838.791565
138 0.350077 0.966311 -838.790894 0.000009 0.000003 -179.999985 838.791565
[Rear_Toe1_01]
136 0.653352 83.966492 -371.173737 0.318346 41.865398 90.464622 380.553192
137 0.653352 83.966492 -371.173737 0.317368 41.866970 90.462952 380.553192
138 0.653352 83.966492 -371.173737 0.316397 41.868549 90.461304 380.553192
[Rear_Toe2_01]
136 178.200760 -294.826019 -362.060547 -7.196267 34.406261 -66.271294 499.765686
137 178.200760 -294.826019 -362.060547 -7.196267 34.406265 -66.271301 499.765686
138 178.200760 -294.826019 -362.060547 -7.196267 34.406261 -66.271294 499.765686
[Rear_Toe3_01]
136 -153.359680 -308.780914 -362.060852 3.281171 33.481689 -112.574135 499.952881
137 -153.359680 -308.780914 -362.060852 3.281433 33.482857 -112.573082 499.952881
138 -153.359680 -308.780914 -362.060852 3.281701 33.484032 -112.572006 499.952881
[planeLockWeightCenter]
136 -0.000062 0.000238 0.000000 -0.011814 -0.004373 -0.000015 0.000246
137 -0.000062 0.000238 0.000000 -0.011814 -0.004373 -0.000015 0.000246
138 -0.000062 0.000238 0.000000 -0.011814 -0.004373 -0.000015 0.000246
[Rear_Toe1_02]
136 379.707825 0.194073 0.000477 -0.000243 -31.691563 0.006935 379.707855
137 379.707825 0.194073 0.000477 -0.000243 -31.691095 0.006935 379.707855
138 379.707825 0.194073 0.000477 -0.000243 -31.690617 0.006935 379.707855
[Rear_Toe1_03]
136 500.129700 0.165701 0.000119 -0.000103 51.902481 0.007295 500.129761
137 500.129700 0.165701 0.000119 -0.000103 51.902481 0.007295 500.129761
138 500.129700 0.165701 0.000119 -0.000103 51.902466 0.007295 500.129761
[Rear_Toe2_02]
136 340.494507 0.000238 -0.000954 0.001192 -69.854538 0.001192 340.494507
137 340.494507 0.000238 -0.000954 0.001192 -69.854523 0.001192 340.494507
138 340.494507 0.000238 -0.000954 0.001192 -69.854523 0.001192 340.494507
[Rear_Toe2_03]
136 433.103577 0.000000 0.000238 0.006696 69.810326 0.006696 433.103546
137 433.103577 0.000000 0.000238 0.006696 69.810326 0.006696 433.103546
138 433.103577 0.000000 0.000238 0.006696 69.810326 0.006696 433.103546
[Rear_Toe3_02]
136 340.494141 -0.000358 -0.000477 0.008288 -67.274704 -0.009460 340.494171
137 340.494141 -0.000358 -0.000477 0.008288 -67.274712 -0.009460 340.494171
138 340.494141 -0.000358 -0.000477 0.008288 -67.274704 -0.009460 340.494171
[Rear_Toe3_03]
136 433.103577 0.001431 -0.000238 -0.000972 65.955261 -0.004547 433.103546
137 433.103577 0.001431 -0.000238 -0.000972 65.955383 -0.004547 433.103546
138 433.103577 0.001431 -0.000238 -0.000972 65.955521 -0.004547 433.103546
[Back_Bone]
136 1312.175781 -701.934692 0.000954 1.474424 -0.068496 -82.869080 1488.125488
137 1312.175781 -701.934692 0.000954 1.474533 -0.066515 -82.945564 1488.125488
138 1312.175781 -701.934692 0.000954 1.474639 -0.064534 -83.022034 1488.125488
[Head]
136 1406.159424 809.709290 0.001431 0.122108 -1.474627 16.475498 1622.625488
137 1406.159424 809.709290 0.001431 0.095190 -1.475704 17.555376 1622.625488
138 1406.159424 809.709290 0.001431 0.068258 -1.476274 18.635180 1622.625488
[Motor_Bone]
136 1158.364380 -417.834747 0.000477 -0.000105 0.000046 -105.985291 1231.419434
137 1158.364380 -417.834747 0.000477 -0.000105 0.000046 -105.985291 1231.419434
138 1158.364380 -417.834747 0.000477 -0.000105 0.000046 -105.985291 1231.419434
[Ping_Mechanism]
136 1240.211182 -445.757202 0.698489 0.000103 -0.000053 82.120995 1317.885986
137 1239.958496 -445.596527 0.658403 0.000103 -0.000053 82.120995 1317.593994
138 1239.705933 -445.435791 0.618317 0.000103 -0.000053 82.120995 1317.301880
[BN_LookIK]
136 193.241119 1380.371704 -0.002861 0.000000 89.965736 -31.038179 1393.832153
137 193.241119 1380.371704 -0.002861 0.000000 89.965736 -31.038179 1393.832153
138 193.241119 1380.371704 -0.002861 0.000000 89.965736 -31.038179 1393.832153
[bottomMouth]
136 -435.092926 615.759399 -0.000954 -0.000022 0.000016 73.527184 753.966492
137 -435.092926 615.759399 -0.000954 -0.000022 0.000016 73.527184 753.966492
138 -435.092926 615.759399 -0.000954 -0.000022 0.000016 73.527184 753.966492
[L_Mouth01]
136 554.440979 7.658243 838.222046 150.204178 23.759130 109.605339 1005.027161
137 554.440979 7.658243 838.222046 150.204178 23.759130 109.605339 1005.027161
138 554.440979 7.658243 838.222046 150.204178 23.759130 109.605339 1005.027161
[L_mouthFront]
136 551.629089 934.514771 339.150421 0.000081 2.804060 79.119301 1136.941284
137 551.629089 934.514771 339.150421 0.000081 2.804060 79.119301 1136.941284
138 551.629089 934.514771 339.150421 0.000081 2.804060 79.119301 1136.941284
[mouthGun]
136 55.332661 1627.420898 0.000000 0.000023 0.000009 -11.038128 1628.361328
137 55.332661 1627.420898 0.000000 0.000023 0.000009 -11.038128 1628.361328
138 55.332661 1627.420898 0.000000 0.000023 0.000009 -11.038128 1628.361328
[R_Mouth01]
136 554.442383 7.659197 -838.223938 29.795891 -23.759109 109.605331 1005.029541
137 554.442383 7.659197 -838.223938 29.795891 -23.759109 109.605331 1005.029541
138 554.442383 7.659197 -838.223938 29.795891 -23.759109 109.605331 1005.029541
[R_mouthFront]
136 551.629089 934.514282 -339.151367 0.000029 -2.803930 79.119133 1136.941162
137 551.629089 934.514282 -339.151367 0.000029 -2.803930 79.119133 1136.941162
138 551.629089 934.514282 -339.151367 0.000029 -2.803930 79.119133 1136.941162
[TopMouth]
136 461.269867 -56.106091 -0.008583 -0.000059 -0.000268 92.025169 464.669525
137 461.269867 -56.106091 -0.008583 -0.000059 -0.000268 92.025169 464.669525
138 461.269867 -56.106091 -0.008583 -0.000059 -0.000268 92.025169 464.669525
[weapon_bone]
136 -987.239868 1448.372803 0.001431 0.000000 89.965736 -31.038221 1752.833740
137 -987.239868 1448.372803 0.001431 0.000000 89.965736 -31.038221 1752.833740
138 -987.239868 1448.372803 0.001431 0.000000 89.965736 -31.038221 1752.833740
